<svg width="32" height="16" viewBox="0 0 32 16" fill="none" xmlns="http://www.w3.org/2000/svg">
<path d="M3.97779 13.7305C3.85434 13.7186 3.65671 13.6106 3.5209 13.5027C2.19982 12.2441 3.89134 10.7937 5.86687 9.95457V7.55719C6.32376 7.8449 6.58304 7.8569 6.5954 7.89282L8.10166 6.44242L7.5954 5.19581C12.0033 3.72141 13.769 3.15807 17.3496 2.57064L16.7076 1.9833L17.757 1.40796C20.1648 2.17508 22.4366 2.37886 22.0415 4.34468C22.1403 3.01413 20.4364 2.51072 17.8435 1.80344L17.3372 2.10315L18.3003 2.87028C14.0158 3.58947 11.3735 4.4046 8.23739 5.45944L8.66949 6.53827L7.08905 8.0606C7.34832 8.13253 10.1018 9.01958 12.9539 7.08969C12.9539 7.08969 13.0156 7.05369 13.0156 7.02977C12.9292 6.89791 12.7316 6.74206 12.4971 6.53827C13.3366 6.5982 13.8799 7.3054 13.7812 8.0486H13.3861C13.4108 7.80889 13.3613 7.54518 13.275 7.37741C11.065 8.94766 8.49683 9.17544 6.3114 8.43224V10.2902C5.24959 10.6498 3.36044 11.7886 3.37272 12.8914C3.44689 13.4069 3.71844 13.5986 3.97779 13.7305Z" fill="black"/>
<path d="M13.0172 13.1164C10.6466 14.2791 8.37469 15.214 4.88046 15.346C0.324423 15.25 -0.379468 12.3133 1.76896 9.24452C3.80629 6.15186 7.04125 3.347 12.1776 1.59689C13.6716 1.08147 15.8571 0.506049 17.9684 0.470126C21.0058 0.446123 23.9568 1.35718 23.7592 4.18605C23.6481 6.35572 20.4255 9.40037 18.7339 11.594C18.0055 12.553 17.8819 13.1762 19.1291 13.1163C23.6358 12.8286 27.7104 11.3183 31.5009 9.74793C28.9326 11.4382 15.6842 17.8033 15.6348 13.464C15.6471 12.9126 15.9064 12.3253 16.3385 11.7019C16.7584 11.0786 17.3387 10.4313 17.9437 9.77202C18.845 8.77711 21.0922 6.37973 21.8454 4.94125C23.1171 2.25624 20.2773 2.1243 17.8202 1.28525L16.7707 1.86068L17.4128 2.44802C13.8321 3.02344 12.0665 3.59879 7.65852 5.07319L8.16479 6.3198L6.6708 7.7582C6.6338 7.72227 6.41153 7.71027 5.94235 7.42256V9.81994C3.97911 10.659 2.27522 12.1095 3.5963 13.368C3.7322 13.4759 3.92975 13.5839 4.0532 13.5958C6.47326 14.9144 13.0295 13.1164 13.0172 13.1164Z" fill="#FF6600"/>
</svg>
