<svg width="32" height="32" viewBox="0 0 32 32" fill="none" xmlns="http://www.w3.org/2000/svg">
<path d="M27.3018 21.2084C27.1781 20.9167 27.0543 20.6008 26.9306 20.3334C26.7326 19.8959 26.5345 19.4828 26.3613 19.0939L26.3365 19.0696C24.6287 15.424 22.7972 11.7298 20.8666 8.08419L20.7924 7.93837C20.5944 7.57381 20.3964 7.18495 20.1984 6.79608C19.9509 6.35861 19.7033 5.89683 19.3073 5.45936C18.5153 4.4872 17.3768 3.95251 16.164 3.95251C14.9265 3.95251 13.8127 4.4872 12.9959 5.41075C12.6246 5.84823 12.3524 6.31 12.1049 6.74747C11.9069 7.13634 11.7089 7.5252 11.5109 7.88976L11.4366 8.03559C9.53079 11.6812 7.67449 15.3754 5.96668 19.021L5.94193 19.0696C5.76868 19.4585 5.57067 19.8716 5.37267 20.3091C5.24891 20.5765 5.12516 20.8681 5.0014 21.1841C4.67965 22.0833 4.58064 22.9339 4.7044 23.8089C4.97665 25.6317 6.21419 27.1628 7.92199 27.8433C8.56551 28.1107 9.23378 28.2322 9.9268 28.2322C10.1248 28.2322 10.3723 28.2079 10.5703 28.1836C11.3871 28.0864 12.2286 27.819 13.0454 27.3573C14.0602 26.7983 15.0255 25.9962 16.1145 24.8297C17.2035 25.9962 18.1936 26.7983 19.1836 27.3573C20.0004 27.819 20.8419 28.0864 21.6587 28.1836C21.8567 28.2079 22.1042 28.2322 22.3022 28.2322C22.9952 28.2322 23.6882 28.1107 24.307 27.8433C26.0395 27.1628 27.2523 25.6074 27.5246 23.8089C27.7226 22.9582 27.6236 22.1076 27.3018 21.2084ZM16.1392 22.4722C14.8027 20.8195 13.9364 19.264 13.6394 17.9516C13.5157 17.3926 13.4909 16.9065 13.5652 16.4691C13.6147 16.0802 13.7632 15.74 13.9612 15.4483C14.4314 14.7921 15.2235 14.3789 16.1392 14.3789C17.055 14.3789 17.8718 14.7678 18.3173 15.4483C18.5153 15.74 18.6638 16.0802 18.7133 16.4691C18.7876 16.9065 18.7628 17.4169 18.6391 17.9516C18.3421 19.2397 17.4758 20.7952 16.1392 22.4722ZM26.0148 23.6145C25.8415 24.8783 24.9753 25.9719 23.7625 26.458C23.1684 26.7011 22.5249 26.774 21.8814 26.7011C21.2626 26.6281 20.6439 26.4337 20.0004 26.0692C19.1093 25.5831 18.2183 24.8297 17.1788 23.7117C18.8123 21.743 19.8023 19.9445 20.1736 18.3405C20.3469 17.5871 20.3716 16.9065 20.2974 16.2746C20.1984 15.667 19.9756 15.1081 19.6291 14.622C18.8618 13.5283 17.5748 12.8964 16.1392 12.8964C14.7037 12.8964 13.4167 13.5526 12.6494 14.622C12.3029 15.1081 12.0801 15.667 11.9811 16.2746C11.8821 16.9065 11.9069 17.6114 12.1049 18.3405C12.4761 19.9445 13.4909 21.7673 15.0997 23.736C14.0849 24.854 13.1691 25.6074 12.2781 26.0935C11.6346 26.458 11.0158 26.6525 10.3971 26.7254C9.7288 26.7983 9.08528 26.7011 8.51601 26.4823C7.30322 25.9962 6.43695 24.9026 6.26369 23.6388C6.18944 23.0312 6.23894 22.4236 6.48645 21.743C6.5607 21.5 6.68446 21.257 6.80821 20.9653C6.98146 20.5765 7.17947 20.1633 7.37748 19.7501L7.40223 19.7015C9.11003 16.0802 10.9416 12.386 12.8474 8.78901L12.9216 8.64319C13.1196 8.27863 13.3177 7.88976 13.5157 7.5252C13.7137 7.13634 13.9364 6.77178 14.2087 6.45583C14.7284 5.87253 15.4215 5.55658 16.1887 5.55658C16.956 5.55658 17.649 5.87253 18.1688 6.45583C18.4411 6.77178 18.6638 7.13634 18.8618 7.5252C19.0598 7.88976 19.2578 8.27863 19.4558 8.64319L19.5301 8.78901C21.4111 12.4103 23.2427 16.1045 24.9505 19.7258V19.7501C25.1485 20.139 25.3218 20.5765 25.5198 20.9653C25.6435 21.257 25.7673 21.5 25.8415 21.743C26.0395 22.3749 26.1138 22.9825 26.0148 23.6145Z" fill="#FF5A5F"/>
</svg>
