<svg width="32" height="32" viewBox="0 0 32 32" fill="none" xmlns="http://www.w3.org/2000/svg">
<g clip-path="url(#clip0_7872_233)">
<path d="M12.1967 27.19C14.3232 27.19 16.0491 25.5247 16.0491 23.4728V19.7556H12.1967C10.0701 19.7556 8.34424 21.4209 8.34424 23.4728C8.34424 25.5247 10.0701 27.19 12.1967 27.19Z" fill="#0ACF83"/>
<path d="M8.34424 16.0383C8.34424 13.9864 10.0701 12.3211 12.1967 12.3211H16.0491V19.7556H12.1967C10.0701 19.7556 8.34424 18.0903 8.34424 16.0383Z" fill="#A259FF"/>
<path d="M8.34424 8.60384C8.34424 6.55192 10.0701 4.8866 12.1967 4.8866H16.0491V12.3211H12.1967C10.0701 12.3211 8.34424 10.6558 8.34424 8.60384Z" fill="#F24E1E"/>
<path d="M16.0493 4.8866H19.9017C22.0283 4.8866 23.7541 6.55192 23.7541 8.60384C23.7541 10.6558 22.0283 12.3211 19.9017 12.3211H16.0493V4.8866Z" fill="#FF7262"/>
<path d="M23.7541 16.0383C23.7541 18.0903 22.0283 19.7556 19.9017 19.7556C17.7752 19.7556 16.0493 18.0903 16.0493 16.0383C16.0493 13.9864 17.7752 12.3211 19.9017 12.3211C22.0283 12.3211 23.7541 13.9864 23.7541 16.0383Z" fill="#1ABCFE"/>
</g>
<defs>
<clipPath id="clip0_7872_233">
<rect width="15.4127" height="22.3034" fill="white" transform="translate(8.34277 4.8866)"/>
</clipPath>
</defs>
</svg>
