<svg width="23" height="15" viewBox="0 0 23 15" fill="none" xmlns="http://www.w3.org/2000/svg">
<path d="M5.32205 1.50676C5.25622 1.4371 5.20476 1.35516 5.1706 1.2656C5.13644 1.17605 5.12025 1.08065 5.12296 0.984845C5.12567 0.889038 5.14722 0.794703 5.18639 0.707227C5.22556 0.61975 5.28157 0.540845 5.35123 0.475015C5.4209 0.409186 5.50284 0.357723 5.59239 0.323563C5.68194 0.289403 5.77735 0.273216 5.87315 0.275927C5.96896 0.278637 6.0633 0.300191 6.15077 0.339359C6.23825 0.378526 6.31715 0.43454 6.38298 0.504202L12.5851 7.0712C12.7132 7.20667 12.7846 7.38604 12.7846 7.57248C12.7846 7.75892 12.7132 7.93828 12.5851 8.07376L6.38298 14.6415C6.31759 14.7127 6.2387 14.7702 6.1509 14.8106C6.0631 14.851 5.96814 14.8736 5.87154 14.8771C5.77494 14.8805 5.67861 14.8647 5.58817 14.8306C5.49772 14.7965 5.41495 14.7447 5.34467 14.6784C5.27439 14.612 5.21799 14.5323 5.17876 14.444C5.13953 14.3556 5.11824 14.2604 5.11614 14.1637C5.11404 14.0671 5.13115 13.971 5.1665 13.881C5.20185 13.7911 5.25472 13.709 5.32205 13.6397L11.0514 7.57248L5.32205 1.50676Z" fill="black" fill-opacity="0.4"/>
<path d="M0.214382 1.50664C0.148553 1.43698 0.0970897 1.35503 0.06293 1.26548C0.0287703 1.17593 0.012583 1.08053 0.0152932 0.984722C0.0180035 0.888916 0.0395579 0.794581 0.0787254 0.707104C0.117893 0.619628 0.173907 0.540722 0.243569 0.474893C0.313231 0.409064 0.395177 0.357601 0.484728 0.323441C0.574279 0.289281 0.669681 0.273094 0.765487 0.275805C0.861294 0.278515 0.955629 0.300069 1.04311 0.339237C1.13058 0.378404 1.20949 0.434418 1.27532 0.50408L7.47748 7.07107C7.60556 7.20655 7.67693 7.38592 7.67693 7.57236C7.67693 7.75879 7.60556 7.93816 7.47748 8.07364L1.27532 14.6414C1.20992 14.7125 1.13103 14.77 1.04324 14.8105C0.955438 14.8509 0.860479 14.8735 0.763875 14.8769C0.667271 14.8804 0.570948 14.8646 0.480501 14.8305C0.390054 14.7964 0.307286 14.7446 0.237004 14.6783C0.166722 14.6119 0.110327 14.5322 0.071096 14.4439C0.0318646 14.3555 0.0105785 14.2603 0.00847377 14.1636C0.00636907 14.067 0.0234876 13.9709 0.0588355 13.8809C0.0941835 13.7909 0.147056 13.7089 0.214382 13.6395L5.94372 7.57236L0.214382 1.50664Z" fill="black" fill-opacity="0.1"/>
<path d="M10.4297 1.50676C10.3639 1.4371 10.3124 1.35516 10.2783 1.2656C10.2441 1.17605 10.2279 1.08065 10.2306 0.984845C10.2333 0.889038 10.2549 0.794703 10.2941 0.707227C10.3332 0.61975 10.3892 0.540845 10.4589 0.475015C10.5286 0.409186 10.6105 0.357723 10.7001 0.323563C10.7896 0.289403 10.885 0.273216 10.9808 0.275927C11.0766 0.278637 11.171 0.300191 11.2584 0.339359C11.3459 0.378526 11.4248 0.43454 11.4906 0.504202L17.6928 7.0712C17.8209 7.20667 17.8923 7.38604 17.8923 7.57248C17.8923 7.75892 17.8209 7.93828 17.6928 8.07376L11.4906 14.6415C11.4253 14.7127 11.3464 14.7702 11.2586 14.8106C11.1708 14.851 11.0758 14.8736 10.9792 14.8771C10.8826 14.8805 10.7863 14.8647 10.6958 14.8306C10.6054 14.7965 10.5226 14.7447 10.4523 14.6784C10.3821 14.612 10.3257 14.5323 10.2864 14.444C10.2472 14.3556 10.2259 14.2604 10.2238 14.1637C10.2217 14.0671 10.2388 13.971 10.2742 13.881C10.3095 13.7911 10.3624 13.709 10.4297 13.6397L16.1591 7.57248L10.4297 1.50676Z" fill="black" fill-opacity="0.7"/>
<path d="M15.5374 1.50676C15.4716 1.4371 15.4201 1.35516 15.3859 1.2656C15.3518 1.17605 15.3356 1.08065 15.3383 0.984845C15.341 0.889038 15.3626 0.794703 15.4017 0.707227C15.4409 0.61975 15.4969 0.540845 15.5666 0.475015C15.6362 0.409186 15.7182 0.357723 15.8077 0.323563C15.8973 0.289403 15.9927 0.273216 16.0885 0.275927C16.1843 0.278637 16.2786 0.300191 16.3661 0.339359C16.4536 0.378526 16.5325 0.43454 16.5983 0.504202L22.8005 7.0712C22.9286 7.20667 22.9999 7.38604 22.9999 7.57248C22.9999 7.75892 22.9286 7.93828 22.8005 8.07376L16.5983 14.6415C16.5329 14.7127 16.454 14.7702 16.3662 14.8106C16.2784 14.851 16.1835 14.8736 16.0869 14.8771C15.9903 14.8805 15.8939 14.8647 15.8035 14.8306C15.7131 14.7965 15.6303 14.7447 15.56 14.6784C15.4897 14.612 15.4333 14.5323 15.3941 14.444C15.3549 14.3556 15.3336 14.2604 15.3315 14.1637C15.3294 14.0671 15.3465 13.971 15.3818 13.881C15.4172 13.7911 15.4701 13.709 15.5374 13.6397L21.2667 7.57248L15.5374 1.50676Z" fill="black"/>
</svg>
