<svg xmlns="http://www.w3.org/2000/svg" width="22" height="22" viewBox="0 0 25 24" fill="none">
  <path
    fill-rule="evenodd"
    clip-rule="evenodd"
    d="M10.75 3.70005C6.99445 3.70005 3.94999 6.74451 3.94999 10.5C3.94999 14.2556 6.99445 17.3 10.75 17.3C14.5055 17.3 17.55 14.2556 17.55 10.5C17.55 6.74451 14.5055 3.70005 10.75 3.70005ZM2.54999 10.5C2.54999 5.97131 6.22125 2.30005 10.75 2.30005C15.2787 2.30005 18.95 5.97131 18.95 10.5C18.95 12.5124 18.2251 14.3554 17.0222 15.7823L21.745 20.5051C22.0183 20.7784 22.0183 21.2217 21.745 21.495C21.4716 21.7684 21.0284 21.7684 20.755 21.495L16.0323 16.7723C14.6054 17.9752 12.7623 18.7 10.75 18.7C6.22125 18.7 2.54999 15.0288 2.54999 10.5Z"
    fill="currentColor"
  />
</svg>
